<svg width="128" height="149" viewBox="0 0 128 149" fill="none" xmlns="http://www.w3.org/2000/svg">
<path d="M23.1792 149H0.99945L0.999452 126.84L23.1792 126.84L23.1792 149Z" fill="currentColor"/>
<path d="M53.9995 121H31.9995L31.9995 31L53.9995 31L53.9995 121Z" fill="currentColor"/>
<path d="M22.9995 90H0.999474L0.999482 0L22.9995 1.9233e-06L22.9995 90Z" fill="currentColor"/>
<path d="M94.9995 149H31.6287L31.6287 126.84L94.9995 126.84L94.9995 149Z" fill="currentColor"/>
<path d="M22.9827 121.002L0.982666 120.998L0.986346 95.7066L22.9864 95.7098L22.9827 121.002Z" fill="currentColor"/>
<path d="M53.7329 25.2965L20.9995 25.2918L21.0032 4.29538e-07L53.7366 0.00476345L53.7329 25.2965Z" fill="currentColor"/>
<path d="M60.0001 118V96L128 96V118L60.0001 118Z" fill="currentColor"/>
<path d="M103.855 148.733L103.858 116L127.987 116.005L127.984 148.739L103.855 148.733Z" fill="currentColor"/>
</svg>
